<?xml version="1.0" encoding="utf-8"?>
<!-- Generator: Adobe Illustrator 26.5.0, SVG Export Plug-In . SVG Version: 6.00 Build 0)  -->
<svg version="1.1" id="vHive_Emblem" xmlns="http://www.w3.org/2000/svg" xmlns:xlink="http://www.w3.org/1999/xlink" x="0px"
	 y="0px" viewBox="0 0 1200 1100" style="enable-background:new 0 0 1200 1100;" xml:space="preserve">
<style type="text/css">
	.st0{fill:#FFD041;}
	.st1{fill:#1D1D1B;}
	.st2{fill:#FFFFFF;}
</style>
<g id="Full-Colour">
	<g id="Honeycomb-2">
		<g>
			<g id="_Radial_Repeat_">
				<path class="st0" d="M832.3,1008.5H367.7c-1.1,0-2.1,0.6-2.6,1.5l-41,70.9c-0.9,1.5-0.3,3.4,1.2,4.2c9,4.7,18.2,9.1,27.5,13.3
					c1.4,0.6,3.1,0.1,3.8-1.2l29.3-50.8c0.5-0.9,1.5-1.5,2.6-1.5h422.5c1.1,0,2.1,0.6,2.6,1.5l29.4,50.8c0.8,1.3,2.4,1.9,3.8,1.2
					c9.3-4.2,18.5-8.7,27.5-13.3c1.5-0.8,2.1-2.7,1.2-4.2l-41-71C834.3,1009,833.3,1008.5,832.3,1008.5L832.3,1008.5z"/>
			</g>
			<g id="_Radial_Repeat_-2">
				<path class="st0" d="M319.1,980.4L86.8,578.1c-0.5-0.9-1.5-1.5-2.6-1.5H2.3c-1.7,0-3.1,1.4-3,3.1c0.5,10.2,1.2,20.3,2.2,30.5
					c0.1,1.5,1.5,2.7,3,2.7h58.7c1.1,0,2.1,0.6,2.6,1.5l211.3,365.9c0.5,0.9,0.5,2.1,0,3l-29.4,50.9c-0.8,1.3-0.4,3.1,0.9,3.9
					c8.3,6,16.7,11.7,25.3,17.2c1.4,0.9,3.4,0.4,4.2-1l41-71C319.6,982.4,319.6,981.3,319.1,980.4L319.1,980.4z"/>
			</g>
			<g id="_Radial_Repeat_-3">
				<path class="st0" d="M86.8,521.9l232.3-402.3c0.5-0.9,0.5-2.1,0-3l-40.9-70.9c-0.9-1.5-2.8-2-4.2-1c-8.6,5.5-17,11.2-25.3,17.2
					c-1.2,0.9-1.6,2.6-0.9,3.9l29.3,50.8c0.5,0.9,0.5,2.1,0,3L65.8,485.5c-0.5,0.9-1.5,1.5-2.6,1.5H4.5c-1.5,0-2.8,1.2-3,2.7
					c-1,10.2-1.8,20.4-2.2,30.5c-0.1,1.7,1.3,3.1,3,3.1h81.9C85.3,523.4,86.3,522.8,86.8,521.9L86.8,521.9z"/>
			</g>
			<g id="_Radial_Repeat_-4">
				<path class="st0" d="M367.7,91.5h464.5c1.1,0,2.1-0.6,2.6-1.5l41-70.9c0.9-1.5,0.3-3.4-1.2-4.2c-9-4.7-18.2-9.1-27.5-13.3
					c-1.4-0.6-3.1-0.1-3.8,1.2l-29.3,50.8c-0.5,0.9-1.5,1.5-2.6,1.5H388.7c-1.1,0-2.1-0.6-2.6-1.5L356.8,2.8
					c-0.8-1.3-2.4-1.9-3.8-1.2c-9.3,4.2-18.5,8.6-27.5,13.3c-1.5,0.8-2.1,2.7-1.2,4.2l41,71C365.7,91,366.7,91.5,367.7,91.5
					L367.7,91.5z"/>
			</g>
			<g id="_Radial_Repeat_-5">
				<path class="st0" d="M880.9,119.6l232.3,402.3c0.5,0.9,1.5,1.5,2.6,1.5h81.9c1.7,0,3.1-1.4,3-3.1c-0.5-10.2-1.2-20.4-2.2-30.5
					c-0.2-1.5-1.4-2.7-3-2.7h-58.7c-1.1,0-2.1-0.6-2.6-1.5L922.9,119.6c-0.5-0.9-0.5-2.1,0-3l29.3-50.8c0.8-1.3,0.4-3-0.8-3.9
					c-8.3-6-16.7-11.7-25.3-17.2c-1.4-0.9-3.4-0.5-4.2,1l-41,71C880.4,117.6,880.4,118.7,880.9,119.6L880.9,119.6z"/>
			</g>
			<g id="_Radial_Repeat_-6">
				<path class="st0" d="M1113.2,578.1L880.9,980.4c-0.5,0.9-0.5,2.1,0,3l40.9,70.9c0.9,1.5,2.8,2,4.2,1c8.6-5.5,17-11.2,25.3-17.2
					c1.2-0.9,1.6-2.6,0.8-3.9l-29.3-50.8c-0.5-0.9-0.5-2.1,0-3l211.3-365.9c0.5-0.9,1.5-1.5,2.6-1.5h58.7c1.5,0,2.8-1.2,3-2.7
					c1-10.2,1.8-20.3,2.2-30.5c0.1-1.7-1.3-3.1-3-3.1h-81.9C1114.7,576.6,1113.7,577.2,1113.2,578.1L1113.2,578.1z"/>
			</g>
		</g>
	</g>
	<g id="Hexagon-2">
		<path class="st1" d="M832.3,144.7H367.7c-1.1,0-2.1,0.6-2.6,1.5L132.9,548.5c-0.5,0.9-0.5,2.1,0,3l232.3,402.3
			c0.5,0.9,1.5,1.5,2.6,1.5h464.5c1.1,0,2.1-0.6,2.6-1.5l232.3-402.3c0.5-0.9,0.5-2.1,0-3L834.9,146.2
			C834.3,145.3,833.3,144.7,832.3,144.7L832.3,144.7z"/>
	</g>
	<g id="Bee-2">
		<g>
			<path class="st0" d="M595.5,532h24c0.8,0,1.5,0.7,1.5,1.5v57c0,0.8-0.7,1.5-1.5,1.5h-24c-0.8,0-1.5-0.7-1.5-1.5v-57
				C594,532.7,594.6,532,595.5,532z"/>
			<path class="st0" d="M553.5,532h24c0.8,0,1.5,0.7,1.5,1.5v57c0,0.8-0.7,1.5-1.5,1.5h-24c-0.8,0-1.5-0.7-1.5-1.5v-57
				C552,532.7,552.6,532,553.5,532z"/>
			<path class="st0" d="M637.5,532h24c0.8,0,1.5,0.7,1.5,1.5v57c0,0.8-0.7,1.5-1.5,1.5h-24c-0.8,0-1.5-0.7-1.5-1.5v-57
				C636,532.7,636.6,532,637.5,532z"/>
			<path class="st0" d="M490.5,463.3C481,415.5,484.7,357,522.8,322c1.5-1.5,4.3-3.4,6-4.8c2-1.5,4.3-2.9,6.5-4.2l3.4-1.8
				c12.5-6.6,27-9.2,41-8.8c10.2,0.3,20.2,2,30,4.7c1.4,0.4,2.5,1.7,2.3,3.2c-0.2,2-2.1,3.2-3.9,2.6c-9.4-2.7-19-4.5-28.6-4.9
				c-43.4-1.9-71.7,27.2-83.4,66.9c-8.3,28.4-8.1,58.8-2.7,87.8c0.2,0.8-0.4,1.6-1.2,1.8C491.4,464.6,490.6,464.1,490.5,463.3
				L490.5,463.3L490.5,463.3z"/>
			<path class="st0" d="M526.5,472c-3.1-64,22.5-121.3,80.9-151.5c39.8-20.9,101.2-28.9,140.9-4.4c14.1,8.9,22.8,24.1,19,41.1
				c-9,37.9-68,70.2-100.8,87.4c-21.4,11-43.4,20.8-65.5,30.3c-3.6,1.5-6-3.8-2.4-5.5c20-6.4,39.6-14.3,58.6-23.3
				c34.1-16.8,69.5-36.6,90.7-69.1c9.6-15,14.5-32.9-0.3-46.2c-25-22.1-72.6-20.9-103.5-13c-44.6,10.9-84.2,42.1-101.2,85.3
				c-9,21.8-12.8,45.4-13.4,69c0,0.9-0.7,1.6-1.5,1.5C527.1,473.5,526.5,472.8,526.5,472L526.5,472L526.5,472z"/>
			<path class="st0" d="M437.1,602.4c-1.2,10.6-4.4,18.3-9.7,23.1c-5.2,4.8-13.1,7.2-23.5,7.2c-5.4,0-9.5-0.7-12.5-2.1
				s-4.5-3.3-4.5-5.7c0-1.8,0.5-3.2,1.6-4.5c1.1-1.2,2.4-1.8,3.9-1.8c1.4,0,3.7,0.4,7,1.1c3.3,0.8,6,1.1,8.1,1.1c5.2,0,9-1.7,11.5-5
				s4.3-9.6,5.4-18.8l6.2-53.4h-14.5c-1.6,0-2.8-0.4-3.7-1.2c-0.9-0.8-1.3-1.9-1.3-3.3c0-1.9,0.7-3.4,2-4.3c1.3-0.9,3.3-1.4,6-1.4
				h12.4l1.9-13.7c1.3-10.4,4.6-17.9,9.8-22.6c5.2-4.7,12.8-7,22.9-7c5.7,0,10,0.7,13,2.1c3,1.4,4.6,3.3,4.6,5.8
				c0,1.4-0.5,2.7-1.6,3.7c-1.1,1-2.3,1.6-3.7,1.6c-0.5,0-2.2-0.4-5.1-1.2s-5.4-1.2-7.8-1.2c-6.3,0-10.9,1.5-13.7,4.4
				s-4.6,8.4-5.6,16.4l-1.3,11.8h12.9c3.2,0,5.3,0.4,6.4,1.1c1,0.8,1.6,2,1.6,3.8s-0.6,3.2-1.9,4c-1.3,0.8-3.5,1.2-6.6,1.2h-13.6
				L437.1,602.4L437.1,602.4z"/>
			<path class="st0" d="M537,518.5v87c0,0.8,0.7,1.5,1.5,1.5h204c0.8,0,1.5,0.7,1.5,1.5v24c0,0.8-0.7,1.5-1.5,1.5h-231
				c-0.8,0-1.5-0.7-1.5-1.5v-141c0-0.8,0.7-1.5,1.5-1.5h231c0.8,0,1.5,0.7,1.5,1.5v24c0,0.8-0.7,1.5-1.5,1.5h-204
				C537.6,517,537,517.7,537,518.5z"/>
			<path class="st0" d="M789,348c-0.4,0-0.8-0.1-1.2-0.4c-0.8-0.5-1-1.6-0.7-2.5c2.9-7.7,2.1-16.7-2.3-24.8
				c-4.8-8.9-13.2-15.2-23.2-17.4c-1-0.2-1.8-1.1-1.7-2.2c0.1-1.2,1.3-2,2.4-1.7c11.1,2.4,20.6,9.5,26,19.5
				c4.9,9.1,5.8,19.4,2.5,28.2C790.5,347.5,789.8,348,789,348z"/>
			<path class="st0" d="M816,312c-0.1,0-0.1,0-0.2,0c-1.1-0.1-1.9-1.1-1.8-2.2c0.7-6.5-2.4-12.8-7.9-16c-0.7-0.4-1.2-1.2-1.1-2
				c0.2-1.5,1.8-2.2,3-1.5c6.9,4,10.9,11.8,10,20C817.8,311.2,817,312,816,312L816,312z"/>
			<path class="st0" d="M807,330c-0.2,0-0.4,0-0.6-0.1c-0.9-0.4-1.4-1.3-1.4-2.3c0.9-14.8-9.7-28.9-25.5-33.6
				c-1-0.3-1.7-1.3-1.5-2.3c0.2-1.2,1.4-1.9,2.5-1.5c17.7,5.3,29.6,21.3,28.4,38.1C808.9,329.2,808,330,807,330L807,330z"/>
			<path class="st0" d="M817.5,562c0,0.8-0.7,1.5-1.5,1.5h-43.1c-0.8,0-1.5,0.7-1.5,1.5v12c0,1.1-0.8,1.7-1.9,1.5l-56.1-15
				c-3-0.8-3-2.1,0-2.9l56.1-15c1-0.3,1.9,0.4,1.9,1.5v12c0,0.8,0.7,1.5,1.5,1.5H816C816.8,560.5,817.5,561.2,817.5,562z"/>
		</g>
	</g>
	<g id="vHive">
		<g>
			<path class="st2" d="M339.9,716.3c-4,0-6.7-0.5-8.2-1.4c-1.5-1-2.2-2.6-2.2-5c0-2.1,0.6-3.7,1.8-4.7c1.2-1,3-1.6,5.4-1.6H362
				c3.4,0,5.7,0.5,6.9,1.4c1.1,0.9,1.7,2.6,1.7,4.9s-0.8,4.1-2.3,5c-1.5,1-4.3,1.4-8.3,1.4h-3.3l23.5,58.5l26.1-58.5h-5.4
				c-4.6,0-7.8-0.5-9.4-1.4c-1.6-0.9-2.4-2.6-2.4-5.1s0.6-4,1.7-4.9c1.1-0.9,3.4-1.4,6.9-1.4h27.9c2.4,0,4.2,0.5,5.4,1.6
				c1.2,1,1.8,2.6,1.8,4.7c0,2.4-0.7,4.1-2.2,5c-1.5,1-4.2,1.4-8.2,1.4h-1.6l-29.8,65.9c-1.5,3.3-3,5.5-4.5,6.5
				c-1.5,1-3.6,1.5-6.5,1.5c-2.6,0-4.6-0.5-6-1.5c-1.4-1-2.9-3.1-4.4-6.5L339.9,716.3L339.9,716.3z"/>
			<path class="st2" d="M470.7,774.3h6c3.5,0,6,0.5,7.5,1.5c1.5,1,2.2,2.6,2.2,4.8c0,2.5-0.6,4.2-1.9,5.1c-1.3,0.9-4,1.4-8.3,1.4
				h-23.9c-2.2,0-3.9-0.5-5-1.6c-1.1-1.1-1.7-2.7-1.7-4.9c0-2.3,0.6-4,1.9-4.9c1.3-0.9,3.8-1.3,7.4-1.3h1.6v-81.4h-1.5
				c-3.6,0-6.1-0.5-7.5-1.5c-1.4-1-2-2.7-2-5.1c0-2.2,0.6-3.9,1.7-4.9c1.1-1,2.9-1.6,5.2-1.6h22.8c4.8,0,7.9,0.5,9.2,1.4
				c1.3,0.9,1.9,2.6,1.9,5.1s-0.8,4.1-2.4,5.1s-4.7,1.5-9.2,1.5h-4.1v31.4h43.3v-31.4h-6.1c-3.4,0-5.9-0.5-7.4-1.5
				c-1.5-1-2.2-2.7-2.2-5c0-2.5,0.7-4.2,2-5.1c1.4-0.9,4.7-1.4,10-1.4h22c2.2,0,3.8,0.5,4.9,1.6c1.1,1.1,1.7,2.7,1.7,4.9
				c0,2.3-0.6,4-1.9,5c-1.3,1-3.5,1.5-6.8,1.5H528v81.4h1.5c3.6,0,6.1,0.5,7.4,1.4c1.3,0.9,2,2.5,2,4.8c0,2.5-0.6,4.2-1.9,5.1
				c-1.3,0.9-4.2,1.4-8.8,1.4h-18.7c-4.9,0-8-0.5-9.3-1.4c-1.3-0.9-2-2.6-2-5.1s0.8-4,2.4-4.9c1.6-0.9,4.5-1.3,8.9-1.3h4.4v-37.6
				h-43.3L470.7,774.3L470.7,774.3z"/>
			<path class="st2" d="M611.7,774.3h29c2.3,0,4.1,0.5,5.2,1.5s1.7,2.6,1.7,4.7c0,2.5-0.5,4.2-1.6,5.1s-3,1.4-5.8,1.4h-70
				c-2.4,0-4.2-0.5-5.4-1.6c-1.2-1.1-1.8-2.7-1.8-4.9s0.6-3.7,1.9-4.7c1.3-1,3.2-1.5,5.7-1.5H598v-58h-17.7c-2.5,0-4.4-0.5-5.7-1.7
				s-2-2.7-2-4.8s0.6-3.7,1.8-4.7c1.2-1,3-1.6,5.4-1.6h26.5c1.6,0,2.9,0.3,3.8,1c0.9,0.7,1.4,1.6,1.4,2.7L611.7,774.3L611.7,774.3z
				 M595,677.5c0-6.5,0.6-10.6,1.8-12.3s3.7-2.5,7.5-2.5s6.2,0.7,7.4,2.1c1.2,1.4,1.8,4.8,1.8,10.1s-0.6,8.4-1.7,9.6
				c-1.1,1.2-3.6,1.8-7.5,1.8s-6.4-0.6-7.5-1.7C595.6,683.5,595,681.1,595,677.5L595,677.5z"/>
			<path class="st2" d="M672.9,716.3c-4,0-6.7-0.5-8.2-1.4c-1.5-1-2.2-2.6-2.2-5c0-2.1,0.6-3.7,1.8-4.7c1.2-1,3-1.6,5.4-1.6h25.3
				c3.4,0,5.7,0.5,6.9,1.4c1.1,0.9,1.7,2.6,1.7,4.9s-0.8,4.1-2.3,5c-1.5,1-4.3,1.4-8.3,1.4h-3.3l23.5,58.5l26.1-58.5h-5.4
				c-4.6,0-7.8-0.5-9.4-1.4c-1.6-0.9-2.4-2.6-2.4-5.1s0.6-4,1.7-4.9c1.1-0.9,3.4-1.4,6.9-1.4h27.9c2.4,0,4.2,0.5,5.4,1.6
				c1.2,1,1.8,2.6,1.8,4.7c0,2.4-0.7,4.1-2.2,5c-1.5,1-4.2,1.4-8.2,1.4h-1.6L724,782.2c-1.5,3.3-3,5.5-4.5,6.5
				c-1.5,1-3.6,1.5-6.5,1.5c-2.6,0-4.6-0.5-6-1.5c-1.4-1-2.9-3.1-4.4-6.5L672.9,716.3L672.9,716.3z"/>
			<path class="st2" d="M794.8,749.2c0.5,8.7,3.4,15.4,8.8,20.2c5.4,4.7,12.8,7.1,22.1,7.1c7,0,14.7-1.9,23-5.7
				c8.3-3.8,13.3-5.7,15.1-5.7s3.3,0.6,4.5,1.7c1.2,1.1,1.8,2.6,1.8,4.2s-0.6,3.3-1.9,4.8c-1.3,1.4-3.3,2.8-6,4.2
				c-6,2.9-12.2,5.2-18.7,6.7c-6.4,1.5-12.8,2.3-19.1,2.3c-13.7,0-24.7-4-33-11.9c-8.2-7.9-12.4-18.4-12.4-31.5s4.4-24.1,13.1-32.3
				s20.1-12.4,34.1-12.4c12.7,0,23.2,3.8,31.6,11.6s12.6,17,12.6,28c0,3.4-0.7,5.6-2.1,6.8c-1.4,1.1-5.2,1.7-11.5,1.7L794.8,749.2
				L794.8,749.2z M795.2,737.4H854c-0.9-7.2-3.9-12.9-9-17.3c-5.1-4.4-11.3-6.5-18.7-6.5c-8,0-14.8,2.1-20.2,6.3
				C800.6,724.1,797,729.9,795.2,737.4L795.2,737.4z"/>
		</g>
	</g>
</g>
</svg>
